# xmcd
# 
# Track frame offsets:
#   150
#   15750
#   35325
#   49575
#   65775
#   80850
#   104550
#   122475
#   148350
#   165375
#   181275
#   195075
#   214200
#   227925
#   240675
#   256200
# 
# Disc length: 3735 seconds
# 
# Revision: 0
# Processed by: cddbd v1.5.2PL0 Copyright (c) Steve Scherf et al.
# Submitted via: VOLTOCDX V1.0.24 
# 
DISCID=db0e9510
DTITLE=Various Artist - Sweet Georgia Brown- 21st Century Tool Box Disc 19
DYEAR=2010
DGENRE=Karaoke
TTITLE0=The Waitresses - I Know What Boys Like
TTITLE1=Sarah McLachlan - Building A Mystery
TTITLE2=The Divinyls - I Touch Myself
TTITLE3=Quarterflash - Harden My Heart
TTITLE4=Blondie - Heart Of Glass
TTITLE5=The Eurythmics - Sweet Dreams
TTITLE6=Kim Carnes - Bette Davis Eyes
TTITLE7=Bonnie Tyler - Total Eclipse Of The Heart
TTITLE8=Scandal - The Warrior
TTITLE9=Joan Jett - Dirty Deeds
TTITLE10=Dusty Springfield - Son Of A Preacher Man
TTITLE11=Madonna - La Isle Bonita
TTITLE12=Fleetwood Mac - Don't Stop
TTITLE13=ABBA - Waterloo
TTITLE14=Carly Simon - Anticipation
TTITLE15=Eurythmics - Here Comes The Rain Again
EXTD=
EXTT0=
EXTT1=
EXTT2=
EXTT3=
EXTT4=
EXTT5=
EXTT6=
EXTT7=
EXTT8=
EXTT9=
EXTT10=
EXTT11=
EXTT12=
EXTT13=
EXTT14=
EXTT15=
PLAYORDER=
